<svg width="35" height="35" viewBox="0 0 35 35" fill="none" xmlns="http://www.w3.org/2000/svg">
<path d="M17.5 35C13.3564 35 9.33748 33.5259 6.18358 30.8491C5.44305 30.2211 4.74838 29.5247 4.11906 28.7796C1.46269 25.6309 0 21.6253 0 17.5C0 12.8255 1.82027 8.4309 5.12559 5.12559C8.4309 1.82027 12.8255 0 17.5 0C22.1745 0 26.5691 1.82027 29.8744 5.12559C33.1797 8.4309 35 12.8255 35 17.5C35 21.6254 33.5373 25.631 30.8813 28.7792C30.2516 29.5247 29.557 30.2211 28.8162 30.8494C25.6625 33.5259 21.6436 35 17.5 35ZM17.5 2.1875C9.05666 2.1875 2.1875 9.05666 2.1875 17.5C2.1875 21.1097 3.46712 24.6144 5.79065 27.3686C6.34163 28.0209 6.9501 28.6309 7.59883 29.1812C10.3581 31.5229 13.8743 32.8125 17.5 32.8125C21.1257 32.8125 24.6419 31.5229 27.401 29.1813C28.0499 28.6309 28.6584 28.0208 29.2097 27.3681C31.5329 24.6145 32.8125 21.1098 32.8125 17.5C32.8125 9.05666 25.9433 2.1875 17.5 2.1875Z" fill="#39414C"/>
<path d="M17.5 18.375C14.6051 18.375 12.25 16.0199 12.25 13.125C12.25 10.2301 14.6051 7.875 17.5 7.875C20.3949 7.875 22.75 10.2301 22.75 13.125C22.75 16.0199 20.3949 18.375 17.5 18.375ZM17.5 9.625C15.5701 9.625 14 11.1951 14 13.125C14 15.0549 15.5701 16.625 17.5 16.625C19.4299 16.625 21 15.0549 21 13.125C21 11.1951 19.4299 9.625 17.5 9.625Z" fill="#39414C"/>
<path d="M26.7592 31.5C26.6822 31.5 26.6041 31.4905 26.5261 31.4706C26.0148 31.3403 25.7043 30.8137 25.8326 30.2944C26.004 29.6012 26.0909 28.884 26.0909 28.1628C26.0909 23.42 22.2938 19.5074 17.6257 19.4393L17.5 19.4387L17.3743 19.4393C12.7062 19.5074 8.90909 23.42 8.90909 28.1628C8.90909 28.884 8.99601 29.6012 9.16736 30.2944C9.29568 30.8137 8.98522 31.3403 8.47394 31.4706C7.96266 31.6009 7.44404 31.2857 7.31572 30.7664C7.10619 29.9189 7 29.0429 7 28.1628C7 25.3409 8.07488 22.681 10.0266 20.6728C11.9765 18.6666 14.5777 17.5401 17.3512 17.5007C17.3557 17.5007 17.3601 17.5007 17.3646 17.5007L17.5 17.5L17.6354 17.5006C17.6399 17.5006 17.6443 17.5006 17.6488 17.5007C20.4223 17.54 23.0235 18.6665 24.9734 20.6727C26.9251 22.681 28 25.3409 28 28.1628C28 29.0429 27.8938 29.9189 27.6843 30.7664C27.5755 31.2064 27.1865 31.4999 26.7592 31.5Z" fill="#39414C"/>
</svg>
